# xmcd CD database file
#
# Track frame offsets:
#	180
#	15807
#	34498
#	51466
#	72641
#	93784
#	109486
#	124701
#	144899
#	167896
#
# Disc length: 2435 seconds
#
# Revision: 0
# Processed by: cddbd v1.5.1PL2 Copyright (c) Steve Scherf et al.
# Submitted via: CDex 1.51
#
DISCID=8909810a
DTITLE=Ray King Blues Band - Coming In For A Landing
DYEAR=1999
DGENRE=Blues
TTITLE0=It's A Woman Thing
TTITLE1=I Couldn't See It Coming
TTITLE2=By My Side
TTITLE3=It's Just a Matter Of Time
TTITLE4=It's Ok It's Alright
TTITLE5=Make It Good
TTITLE6=Move It On
TTITLE7=Lovin' In The Evening
TTITLE8='57 Chevy
TTITLE9=Jealous Kind
EXTD=YEAR: 1999
EXTT0=
EXTT1=
EXTT2=
EXTT3=
EXTT4=
EXTT5=
EXTT6=
EXTT7=
EXTT8=
EXTT9=
PLAYORDER=
